<?xml version="1.0" encoding="UTF-8"?><svg id="Layer_1" xmlns="http://www.w3.org/2000/svg" width="127" height="127" viewBox="0 0 127 127"><defs><style>.cls-1{fill:#fff;}.cls-2{fill:#be123c;}.cls-3{fill:none;}.cls-4{fill:#9f1239;}</style></defs><circle class="cls-2" cx="63.5" cy="64" r="63.5"/><circle class="cls-2" cx="63.5" cy="64" r="63.5"/><path class="cls-4" d="M124.81,80.06c-6.28,23.33-25.53,41.35-49.54,45.85l-28.69-28.69c.75,.71,1.76,1.14,2.87,1.14h31.49c2.32,0,4.2-1.88,4.2-4.2v-4.87c0-2.32-1.88-4.2-4.2-4.2h-.87c-2.32,0-4.2-1.88-4.2-4.2V32.84c0-1.06-.39-2.03-1.05-2.77l49.99,49.99Z"/><path class="cls-1" d="M80.94,85.09h-.87c-2.32,0-4.2-1.88-4.2-4.2V32.84c0-1.06-.39-2.03-1.05-2.77l-.04-.04c-.76-.86-1.8701-1.39-3.11-1.39h-11.6c-1.21,0-2.37,.52-3.15,1.43-1.35,1.55-2.61,2.86-3.79,3.91-1.53,1.36-2.98,2.49-4.34,3.39-1.36,.9-2.71,1.68-4.04,2.34-.18,.09-.36,.19-.55,.28-1.98,.98-2.87,3.33-2.02,5.37l1.39,3.36c.67,1.62,2.24,2.59,3.88,2.59,.6,0,1.2-.13,1.78-.4,2.79-1.31,5.99,.72,5.99,3.8v26.1801c0,2.3199-1.8799,4.2-4.2,4.2h-1.57c-2.32,0-4.2,1.88-4.2,4.2v4.87c0,1.09,.41,2.08,1.09,2.82l.24,.24c.75,.71,1.76,1.14,2.87,1.14h31.49c2.32,0,4.2-1.88,4.2-4.2v-4.87c0-2.32-1.88-4.2-4.2-4.2Z"/><line class="cls-3" x1="137.61" y1="92.85" x2="124.81" y2="80.06"/><line class="cls-3" x1="74.82" y1="30.07" x2="74.78" y2="30.03"/><line class="cls-3" x1="93.07" y1="143.71" x2="75.27" y2="125.91"/><line class="cls-3" x1="46.34" y1="96.98" x2="46.58" y2="97.22"/></svg>