<?xml version="1.0" encoding="UTF-8"?><svg id="Layer_1" xmlns="http://www.w3.org/2000/svg" width="128" height="128" viewBox="0 0 128 128"><defs><style>.cls-1{fill:#fff;}.cls-2{fill:#be123c;}.cls-3{fill:none;}.cls-4{fill:#9f1239;}</style></defs><circle class="cls-2" cx="64" cy="64" r="63.5"/><path class="cls-4" d="M125.8089,80.56c-6.96,25.86-29.85,45.2-57.5099,46.82l-29.41-29.41c.58,.59,1.4,.95,2.29,.95h46.65c1.78,0,3.23-1.45,3.23-3.23v-14.49c0-1.78-1.45-3.23-3.23-3.23h-10.06c-1.78,0-3.23,1.45-3.23,3.23v1.4c0,1.79-1.45,3.24-3.24,3.24h-14.08c.59-.98,1.46-2.08,2.61-3.3,1.15-1.21,2.43-2.42,3.84-3.64,1.41-1.21,2.85-2.36,4.32-3.44,1.48-1.08,2.81-2.02,3.99-2.8,2.62-1.71,4.92-3.28,6.89-4.72,1.96-1.45,3.6-2.97,4.91-4.58s2.3-3.42,2.96-5.46c.65-2.03,.98-4.46,.98-7.28,0-3.34-.61-6.34-1.82-9-.32-.71-.67-1.38-1.06-2.03l40.97,40.97Z"/><line class="cls-3" x1="138.6089" y1="93.35" x2="125.8089" y2="80.56"/><polyline class="cls-3" points="84.8389 39.59 77.7789 32.53 75.7789 30.53"/><path class="cls-1" d="M87.8289,77.97h-10.06c-1.78,0-3.23,1.45-3.23,3.23v1.4c0,1.79-1.45,3.24-3.24,3.24h-14.08c.59-.98,1.46-2.08,2.61-3.3,1.15-1.21,2.43-2.42,3.84-3.64,1.41-1.21,2.85-2.36,4.32-3.44,1.48-1.08,2.81-2.02,3.99-2.8,2.62-1.71,4.92-3.28,6.89-4.72,1.96-1.45,3.6-2.97,4.91-4.58s2.3-3.42,2.96-5.46c.65-2.03,.98-4.46,.98-7.28,0-3.34-.61-6.34-1.82-9-.32-.71-.67-1.38-1.06-2.03-.7-1.19-1.51-2.28-2.42-3.28l-.08-.09c-.44-.49-.91-.95-1.41-1.39-.97-.86-2.02-1.6299-3.15-2.3-1.31-.79-2.74-1.45-4.27-1.98-2.86-.98-5.92-1.47-9.2-1.47-4.92,0-9.55,1.03-13.87,3.1-3.45,1.64-6.63,3.9-9.53,6.76-1.26,1.25-1.29,3.27-.08,4.56l6.17,6.5c1.27,1.35,3.41,1.34,4.69,.01,.01-.01,.02-.02,.02-.03,.86-.88,1.79-1.69,2.81-2.41,1.01-.72,2.1-1.32,3.24-1.82,1.15-.49,2.38-.74,3.69-.74,2.3,0,4.25,.46,5.86,1.38,1.6,.92,2.4,2.6299,2.4,5.12,0,1.5-.57,2.93-1.72,4.27-1.14,1.35-2.59,2.66-4.32,3.94-1.74,1.28-3.63,2.58-5.66,3.89-2.03,1.31-3.93,2.75-5.71,4.33-1.57,1.24-2.95,2.41-4.13,3.49s-2.31,2.23-3.39,3.44c-1.08,1.22-2.15,2.59-3.2,4.13-.92,1.36-1.97,2.97-3.14,4.85-.32,.52-.5,1.13-.5,1.73v10.11c0,.84,.32,1.6,.84,2.17l.11,.11c.58,.59,1.4,.95,2.29,.95h46.65c1.78,0,3.23-1.45,3.23-3.23v-14.49c0-1.78-1.45-3.23-3.23-3.23Z"/><line class="cls-3" x1="101.1589" y1="160.24" x2="68.2989" y2="127.38"/><line class="cls-3" x1="38.8889" y1="97.97" x2="38.7789" y2="97.86"/><line class="cls-3" x1="82.3374" y1="36.22" x2="161.5915" y2="115.4741"/></svg>