<?xml version="1.0" encoding="UTF-8"?><svg id="Layer_1" xmlns="http://www.w3.org/2000/svg" width="128" height="128" viewBox="0 0 128 128"><defs><style>.cls-1{fill:#fff;}.cls-2{fill:#be123c;}.cls-3{fill:none;}.cls-4{fill:#9f1239;}</style></defs><circle class="cls-2" cx="64" cy="64" r="63.5"/><path class="cls-4" d="M125.8217,80.54c-6.2,23.05-25.05,40.92-48.65,45.69l-34.97-34.96c.2599,.23,.53,.47,.8,.7,1.58,1.31,3.37,2.47,5.39,3.46,1.86,.92,3.81,1.67,5.86,2.25,2.57,.74,5.25,1.1,7.92,1.06,3.08-.04,6.11-.47,9.1-1.29,3.1801-.86,6.01-2.1801,8.51-3.94,2.5-1.76,4.54-3.96,6.1-6.59,1.58-2.63,2.36-5.73,2.36-9.32,0-2.18-.32-4.12-.96-5.82-.64-1.7-1.43-3.19-2.35-4.47-.93-1.28-1.91-2.37-2.94-3.27-1.02-.9-1.92-1.63-2.69-2.21,.64-.45,1.36-1.04,2.16-1.78,.8-.74,1.57-1.6,2.31-2.6,.7401-.9901,1.36-2.1201,1.88-3.41,.51-1.28,.76-2.76,.76-4.42,0-3.08-.54-5.87-1.63-8.37-.82-1.87-1.92-3.55-3.29-5.03l44.33,44.32Z"/><path class="cls-1" d="M87.2817,71.78c-.64-1.7-1.43-3.19-2.35-4.47-.93-1.28-1.91-2.37-2.94-3.27-1.02-.9-1.92-1.63-2.69-2.21,.64-.45,1.36-1.04,2.16-1.78,.8-.74,1.57-1.6,2.31-2.6,.7401-.9901,1.36-2.1201,1.88-3.41,.51-1.28,.76-2.76,.76-4.42,0-3.08-.54-5.87-1.63-8.37-.82-1.87-1.92-3.55-3.29-5.03l-.45-.45c-.32-.33-.66-.65-1.02-.96-2.08-1.79-4.65-3.17-7.69-4.13-2.42-.77-5.12-1.23-8.08-1.38-3.61-.19-7.26,.27-10.67,1.47-1.37,.48-2.6899,1.02-3.9399,1.64-1.83,.9-3.46,1.87-4.9,2.93-.02,.01-.03,.02-.05,.03-1.98,1.46-2.27,4.32-.7,6.22l3.8,4.58c1.49,1.8,4.09,2.03,5.99,.66,.76-.54,1.54-1.02,2.35-1.4399,1.99-1.03,3.91-1.54,5.77-1.54,1.02,0,2.03,.16,3.03,.48,.99,.32,1.89,.79,2.69,1.4s1.45,1.39,1.97,2.35c.51,.96,.77,2.09,.77,3.36,0,2.18-.79,3.83-2.36,4.96-1.57,1.12-3.51,1.68-5.81,1.68h-2.69c-2.39,0-4.33,1.94-4.33,4.34v2.76c0,2.4,1.94,4.34,4.33,4.34h2.88c2.43,0,4.37,.52,5.81,1.54,1.45,1.02,2.17,2.85,2.17,5.48,0,2.43-.77,4.28-2.31,5.53s-3.65,1.87-6.35,1.87c-2.75,0-5.1-.59-7.06-1.78-.95-.57-1.88-1.22-2.79-1.94-1.72-1.35-4.2-1.11-5.72,.47l-4.16,4.33c-1.71,1.77-1.59,4.59,.23,6.25,.2599,.23,.53,.47,.8,.7,1.58,1.31,3.37,2.47,5.39,3.46,1.86,.92,3.81,1.67,5.86,2.25,2.57,.74,5.25,1.1,7.92,1.06,3.08-.04,6.11-.47,9.1-1.29,3.1801-.86,6.01-2.1801,8.51-3.94,2.5-1.76,4.54-3.96,6.1-6.59,1.58-2.63,2.36-5.73,2.36-9.32,0-2.18-.32-4.12-.96-5.82Z"/><line class="cls-3" x1="95.9817" y1="145.04" x2="77.1717" y2="126.23"/><line class="cls-3" x1="149.3217" y1="104.04" x2="125.8217" y2="80.54"/><line class="cls-3" x1="81.4917" y1="36.22" x2="81.0417" y2="35.77"/><line class="cls-3" x1="-75.4498" y1="36.22" x2="3.8043" y2="115.4741"/></svg>