<?xml version="1.0" encoding="UTF-8"?><svg id="Layer_1" xmlns="http://www.w3.org/2000/svg" width="46" height="44.2242" viewBox="0 0 46 44.2242"><defs><style>.cls-1{fill:#261949;}.cls-2{fill:#282828;}.cls-3{fill:#bb2129;}.cls-4{fill:#263d87;}.cls-5{fill:#e42127;}</style></defs><path class="cls-5" d="M.5208,29.469c-.2111-1.0412-.3635-2.1034-.4464-3.1873C-.9557,12.8065,8.8246,1.0688,21.913,.0682c2.2985-.1757,4.5466-.0079,6.6915,.4581l-.1852,.0142C12.9561,1.7226,1.1065,14.3417,.5208,29.469Z"/><path class="cls-5" d="M45.8147,16.3594c.1254,1.055,.1907,2.126,.1849,3.2131-.0724,13.5143-10.7775,24.4151-23.904,24.3448-2.3052-.0123-4.5321-.363-6.6318-1.0024l.1857,.001c15.5081,.083,28.3475-11.5274,30.1651-26.5565Z"/><path class="cls-4" d="M16.6588,.4351c1.0447-.1929,2.1094-.3268,3.1946-.3907,13.4911-.7951,25.0565,9.1883,25.8288,22.2922,.1356,2.3012-.0713,4.5461-.5747,6.6825l-.0109-.1854C44.1841,13.3522,31.7735,1.2844,16.6588,.4351Z"/><path class="cls-4" d="M28.1445,44.0221c-1.0543,.1311-2.125,.2021-3.212,.2021C11.418,44.2242,.46,33.5776,.46,20.451c0-2.3052,.3387-4.534,.9669-6.6371v.1857c0,15.5083,11.6791,28.2854,26.7176,30.0225Z"/><g><path class="cls-1" d="M9.4461,13.2351v-1.4762h6.5246v1.4762h-6.5246Zm2.4604,7.1503V11.7589h1.6038v8.6265h-1.6038Z"/><path class="cls-1" d="M19.8116,20.5069c-2.1911,0-3.2866-1.458-3.2866-4.374,0-2.997,1.0955-4.4955,3.2866-4.4955s3.2866,1.4985,3.2866,4.4955c0,2.916-1.0955,4.374-3.2866,4.374Zm0-1.5309c1.0692,0,1.6038-.9477,1.6038-2.8431,0-1.9805-.5346-2.9707-1.6038-2.9707s-1.6038,.9902-1.6038,2.9707c0,1.8954,.5346,2.8431,1.6038,2.8431Z"/><path class="cls-1" d="M26.2045,17.8096l-2.8856-6.0507h1.7921l1.7496,4.0095h.1094l1.7496-4.0095h1.7921l-2.8856,6.0507h-1.4216Zm-.0911,2.5758v-4.2525h1.6038v4.2525h-1.6038Z"/><path class="cls-1" d="M34.0185,20.5069c-2.1911,0-3.2866-1.458-3.2866-4.374,0-2.997,1.0955-4.4955,3.2866-4.4955s3.2866,1.4985,3.2866,4.4955c0,2.916-1.0955,4.374-3.2866,4.374Zm0-1.5309c1.0692,0,1.6038-.9477,1.6038-2.8431,0-1.9805-.5346-2.9707-1.6038-2.9707s-1.6038,.9902-1.6038,2.9707c0,1.8954,.5346,2.8431,1.6038,2.8431Z"/><path class="cls-3" d="M12.2588,26.351c.1904-.0101,.3078-.0294,.3524-.0577,.0304-.0203,.078-.0972,.1428-.2309,.1235-.2633,.2815-.6288,.4739-1.0965l1.0753-2.6335h.4465l1.373,3.2623c.1782,.4116,.2881,.6374,.3296,.6764,.0415,.0395,.1696,.0663,.3842,.08v.2764c-.3301-.0142-.6419-.0213-.935-.0213-.3503,0-.6834,.0071-.9988,.0213v-.2764c.2405-.0101,.3797-.0233,.4172-.04s.0562-.0471,.0562-.0906c0-.0375-.0425-.1661-.1276-.3858l-.2-.5073c-.2516-.0061-.5326-.0091-.8429-.0091-.2693,0-.5149,.003-.7356,.0091l-.1337,.3412c-.0365,.0932-.081,.2314-.1337,.4156-.0122,.0415-.0182,.079-.0182,.1124,0,.0456,.0197,.078,.0592,.0967s.1817,.038,.4268,.0577v.2764c-.1985-.0142-.4455-.0213-.7406-.0213-.2815,0-.5047,.0071-.6708,.0213v-.2764Zm1.9931-2.9474l-.6414,1.5623c.1863,.0101,.3918,.0152,.6171,.0152,.2349,0,.4597-.0051,.6743-.0152l-.65-1.5623Z"/><path class="cls-3" d="M19.2036,24.7655h-.2491c-.0142-.241-.0314-.3797-.0516-.4161-.0263-.0567-.0861-.1083-.1782-.1549-.0926-.0466-.2086-.0699-.3488-.0699-.2152,0-.3721,.0613-.4703,.1843-.0987,.123-.1478,.3437-.1478,.6627,0,.404,.0921,.7163,.2764,.9366s.4212,.3306,.7113,.3306c.1053,0,.202-.0091,.2901-.0273s.1686-.0446,.2415-.0795l.0511,.0673c-.044,.0967-.0856,.1944-.1235,.2931-.1337,.0663-.2698,.1159-.4085,.1493-.1392,.0329-.2795,.0496-.4212,.0496-.4415,0-.7857-.122-1.0317-.3665-.246-.244-.3691-.5913-.3691-1.0414,0-.1661,.0162-.3164,.0486-.4516,.0324-.1347,.0764-.2491,.1321-.3432,.0557-.0947,.1169-.1711,.1838-.2298,.0405-.0324,.2147-.1448,.5225-.3377,.1802-.1134,.3113-.1833,.3934-.2096s.1919-.0395,.3296-.0395c.1215,0,.24,.0091,.3554,.0273s.2278,.0456,.3372,.082l.0516,.0547c-.0729,.3382-.1144,.648-.1245,.9295Z"/><path class="cls-3" d="M19.6233,26.6275v-.2491c.2187-.0122,.3443-.0273,.3767-.0456,.0203-.0122,.0354-.0304,.0456-.0547,.0203-.0506,.0314-.2364,.0334-.5569l.0061-1.1198c0-.5938-.0061-1.1355-.0182-1.6246-.0041-.1843-.0223-.2926-.0547-.324s-.162-.0501-.3888-.0562v-.2187c.1235,0,.3022-.0233,.5361-.0699,.2334-.0466,.4242-.1002,.5721-.161,.0613-.0263,.0967-.0395,.1068-.0395,.0304,0,.0456,.0192,.0456,.0577v.0213c-.0061,.0486-.0091,.1235-.0091,.2248l-.0213,.975c-.0041,.2369-.0051,.5103-.003,.8201l.4004-.3402c.0845-.0709,.1483-.1144,.1909-.1306,.1073-.0425,.2324-.0638,.3761-.0638,.3174,0,.5518,.079,.7037,.2374,.1493,.1585,.2243,.4091,.2243,.7518l-.0122,1.2059c0,.2152,.0081,.3478,.0243,.3989,.0101,.0304,.0334,.0547,.0709,.0729,.037,.0182,.1504,.0314,.3392,.0395v.2491c-.2491-.0122-.4708-.0182-.6652-.0182-.1823,0-.3696,.0061-.5619,.0182l-.0395-.0516c.0405-.3934,.0608-.7796,.0608-1.1588,0-.5189-.0304-.8404-.0911-.9639-.081-.1564-.2268-.2344-.4374-.2344-.1256,0-.2369,.0294-.3341,.0881-.0972,.0592-.1645,.1286-.202,.2091-.0375,.08-.0562,.2309-.0562,.4521l.0122,.935c.002,.2116,.0122,.3372,.0304,.3777,.0101,.0208,.0263,.0359,.0486,.0461,.0446,.0223,.1762,.0395,.3949,.0516v.2491c-.2329-.0122-.4769-.0182-.732-.0182-.3686,0-.6926,.0061-.972,.0182Z"/><path class="cls-3" d="M23.3786,26.6275v-.2491c.2288-.0081,.361-.0223,.3964-.0425s.0582-.077,.0683-.1706c.0162-.1276,.0243-.4096,.0243-.8454,0-.1883-.003-.363-.0091-.523l-.0091-.3559c0-.118-.0127-.1904-.038-.2177s-.0937-.043-.205-.0471l-.2278-.0091v-.2339c.488-.037,.89-.124,1.2059-.2612l.0759,.0608c-.0304,.3878-.0456,.9523-.0456,1.6929,0,.4283,.0071,.687,.0213,.7761,.0101,.0633,.0284,.1038,.0557,.122s.1595,.0365,.3969,.0547v.2491c-.3655-.0122-.648-.0182-.8475-.0182-.1068,0-.3944,.0061-.8627,.0182Zm.8444-4.4074c.1296,0,.2405,.0461,.3326,.1382s.1382,.204,.1382,.3356c0,.1296-.0461,.2405-.1382,.3326s-.204,.1382-.3356,.1382c-.1296,0-.2405-.0461-.3326-.1382s-.1382-.203-.1382-.3326c0-.1316,.0461-.2435,.1382-.3356s.204-.1382,.3356-.1382Z"/><path class="cls-3" d="M27.8787,26.0407l.0876,.0881-.1362,.2911c-.1458,.0901-.3022,.158-.4693,.2035-.1671,.0451-.3448,.0678-.5331,.0678-.442,0-.7898-.1281-1.0439-.3848-.2541-.2562-.3812-.6166-.3812-1.0808,0-.2936,.0375-.5371,.1124-.7295,.0608-.1564,.1605-.286,.2992-.3893s.2987-.202,.4799-.2951,.3802-.1397,.5969-.1397c.3321,0,.6065,.0926,.8232,.2784s.325,.4845,.325,.8966c0,.0506-.0041,.1281-.0122,.2314l-.4971,.0911c-.1539,.0101-.3761,.0152-.6672,.0152h-.6581c.0304,.3493,.1347,.6126,.3129,.7887,.1782,.1772,.405,.2653,.6804,.2653,.1154,0,.2298-.0167,.3437-.0501,.1134-.0334,.2258-.083,.3372-.1478Zm-1.6924-1.178c.1823,.0162,.3645,.0243,.5468,.0243,.16,0,.3281-.0081,.5042-.0243l.003-.1433c0-.2501-.0456-.4323-.1367-.5473s-.2147-.1721-.3706-.1721c-.1094,0-.2035,.0268-.2825,.081-.079,.0537-.1377,.1296-.1762,.2268-.0385,.0977-.0678,.2825-.0881,.5549Z"/><path class="cls-3" d="M28.1946,23.9879v-.2491l.7806,.0182c.2633,0,.5447-.0061,.8444-.0182v.2491c-.1883,.0061-.3002,.0172-.3356,.0334s-.0532,.0435-.0532,.082c0,.0243,.0101,.0719,.0304,.1428l.1823,.5073,.404,1.0495,.3979-.931c.1843-.4313,.2764-.6855,.2764-.7624,0-.0425-.0167-.0714-.0501-.0866s-.1504-.0268-.3508-.0349v-.2491c.2653,.0122,.4809,.0182,.647,.0182,.1802,0,.3736-.0061,.5802-.0182v.2491c-.162,.0061-.2633,.0268-.3038,.0623s-.1574,.2612-.3508,.6774-.4673,1.0495-.8216,1.9h-.5346c-.1337-.3665-.3341-.8859-.6014-1.5582-.1762-.4394-.2946-.727-.3554-.8627-.0405-.0871-.079-.1428-.1154-.1671s-.1266-.0415-.2703-.0516Z"/><path class="cls-3" d="M34.262,26.0407l.0876,.0881-.1362,.2911c-.1458,.0901-.3022,.158-.4693,.2035-.1671,.0451-.3448,.0678-.5331,.0678-.442,0-.7898-.1281-1.0439-.3848-.2541-.2562-.3812-.6166-.3812-1.0808,0-.2936,.0375-.5371,.1124-.7295,.0608-.1564,.1605-.286,.2992-.3893s.2987-.202,.4799-.2951,.3802-.1397,.5969-.1397c.3321,0,.6065,.0926,.8232,.2784s.325,.4845,.325,.8966c0,.0506-.0041,.1281-.0122,.2314l-.4971,.0911c-.1539,.0101-.3761,.0152-.6672,.0152h-.6581c.0304,.3493,.1347,.6126,.3129,.7887,.1782,.1772,.405,.2653,.6804,.2653,.1154,0,.2298-.0167,.3437-.0501,.1134-.0334,.2258-.083,.3372-.1478Zm-1.6924-1.178c.1823,.0162,.3645,.0243,.5468,.0243,.16,0,.3281-.0081,.5042-.0243l.003-.1433c0-.2501-.0456-.4323-.1367-.5473s-.2147-.1721-.3706-.1721c-.1094,0-.2035,.0268-.2825,.081-.079,.0537-.1377,.1296-.1762,.2268-.0385,.0977-.0678,.2825-.0881,.5549Z"/><path class="cls-2" d="M13.1807,32.8483v-.164c.1073-.0486,.2055-.1053,.2946-.1701,.0405-.3159,.0608-.9801,.0608-1.9926,0-.6905-.0071-1.1482-.0213-1.373-.0061-.1195-.0268-.1949-.0623-.2263s-.1858-.0582-.4511-.0805v-.2552c.4774,.0182,.8546,.0273,1.132,.0273l1.6721-.0273c.1762,0,.3346,.0071,.4764,.0213l.0213,.0339c-.0446,.2228-.077,.5194-.0972,.8895h-.24c-.0101-.2957-.0218-.4536-.0349-.4739s-.0592-.0395-.1382-.0577c-.1681-.0365-.4253-.0547-.7715-.0547-.1701,0-.3686,.0071-.5954,.0213-.0263,.6257-.0415,1.1239-.0456,1.4945,.2167,.0142,.4202,.0213,.6105,.0213,.2815,0,.4506-.0091,.5073-.0273,.0344-.0122,.0587-.0415,.0729-.0881,.0122-.0365,.0263-.164,.0425-.3827h.2612c-.0101,.3432-.0152,.5665-.0152,.6698l.0152,.685h-.2612c-.0142-.2668-.0324-.4207-.0547-.4612-.0122-.0243-.0395-.0415-.082-.0521-.1013-.0223-.3291-.0334-.6834-.0334-.1114,0-.242,.0071-.3918,.0213-.0041,.1068-.0061,.2157-.0061,.327,0,.5766,.0101,1.0206,.0304,1.3314l.6024,.0091c.3432,0,.6566-.0182,.9406-.0547,.0506-.1873,.0992-.3999,.1458-.6379h.2521c-.0466,.3605-.0739,.7067-.082,1.0388-.1843,.0142-.3615,.0213-.5316,.0213-.1114,0-.3311-.0035-.6591-.0106-.3058-.0071-.5873-.0106-.8444-.0106-.3382,0-.6946,.0071-1.0692,.0213Z"/><path class="cls-2" d="M16.6414,32.8483v-.2491c.2207-.0122,.3453-.0299,.3736-.0532s.0456-.0754,.0516-.1569c.0122-.2045,.0182-.5655,.0182-1.0824,0-.2557-.0041-.4759-.0122-.6602-.0041-.1139-.0122-.1807-.0243-.201-.0101-.0162-.0258-.0284-.0481-.0365s-.1418-.0152-.3589-.0213v-.2339c.1099,0,.2805-.0233,.5133-.0709,.2324-.0471,.4278-.1013,.5857-.1625l.0825-.0278c.0284,0,.0425,.0233,.0425,.0699l-.003,.0273c-.0061,.0567-.0091,.2025-.0091,.4374l.4698-.3949c.0587-.0506,.1195-.0851,.1823-.1033,.0891-.0243,.1969-.0365,.3245-.0365,.2141,0,.3898,.037,.526,.1114,.1367,.0739,.2364,.1762,.3002,.3073,.0638,.1306,.0957,.3341,.0957,.6105,0,.1215-.003,.2627-.0091,.4227-.0101,.3291-.0152,.6131-.0152,.8525,0,.1362,.0111,.2303,.0334,.283,.0162,.037,.039,.0613,.0683,.0734s.1402,.0273,.3326,.0456v.2491l-.3736-.0122-.24-.0061-.6257,.0182-.0334-.0395c.0527-.3853,.079-.7806,.079-1.1861,0-.5149-.0314-.8323-.0942-.9518-.081-.1544-.2288-.2314-.4435-.2314-.1377,0-.2572,.0349-.3584,.1053-.1013,.0699-.1671,.1443-.1974,.2238-.0142,.0324-.0213,.1352-.0213,.3078,0,.7351,.003,1.1558,.0091,1.2626,.0061,.1063,.0233,.1721,.0516,.1964,.0365,.0304,.1721,.0516,.407,.0638v.2491c-.3524-.0122-.65-.0182-.893-.0182-.1438,0-.406,.0061-.7867,.0182Z"/><path class="cls-2" d="M23.4885,30.5033h-.5042c.0284,.0992,.0425,.1919,.0425,.2769,0,.3736-.1331,.6515-.3989,.8343s-.5766,.2739-.9325,.2739c-.0562,0-.1392-.0041-.2486-.0122-.0926,.0547-.1519,.0982-.1772,.1306s-.038,.0689-.038,.1094c0,.0972,.0678,.1559,.2035,.1762,.0749,.0122,.486,.0182,1.2332,.0182,.2511,0,.4247,.0218,.5209,.0653s.1757,.121,.2384,.2324,.0942,.2552,.0942,.4313c0,.407-.161,.7482-.483,1.0236s-.7574,.4131-1.3061,.4131c-.4658,0-.813-.0815-1.0419-.2445s-.3432-.3711-.3432-.6242c0-.1458,.0354-.2673,.1063-.364,.0324-.0446,.1438-.1215,.3341-.2309l.2187-.1245c-.164-.0324-.2734-.0754-.3281-.1291s-.082-.1301-.082-.2293c0-.1073,.0395-.239,.1185-.3949l.1002-.0638c.1154-.0749,.2248-.1559,.3281-.243-.2319-.083-.3989-.1954-.5017-.3372s-.1544-.32-.1544-.5346c0-.3103,.119-.565,.3574-.7644s.5726-.2992,1.0029-.2992c.2121,0,.3989,.0213,.5604,.0638,.119,.0324,.2384,.0901,.3574,.1731,.4455,.002,.7361-.0041,.8718-.0182l.0516,.0628c-.0547,.0759-.1215,.1853-.2005,.3291Zm-2.1475,2.4209c-.1701,.1261-.281,.2303-.3326,.3139-.0516,.083-.0775,.1782-.0775,.286,0,.1949,.0759,.3529,.2278,.4733,.1519,.121,.3756,.1812,.6713,.1812,.2126,0,.3939-.0334,.5437-.1002,.1499-.0673,.2622-.1595,.3372-.2774,.0749-.1175,.1124-.2486,.1124-.3929,0-.1316-.0304-.2435-.0911-.3346-.0446-.0633-.1058-.1038-.1838-.122s-.3032-.0273-.6758-.0273h-.5316Zm-.0699-2.1617c0,.3048,.0446,.5189,.1342,.6424,.0896,.124,.2182,.1858,.3853,.1858,.1529,0,.2714-.0542,.3564-.163,.084-.1083,.1266-.2784,.1266-.5098,0-.2536-.044-.4384-.1311-.5538-.0876-.1159-.2111-.1736-.3701-.1736-.1529,0-.2749,.0501-.3655,.1509-.0906,.1002-.1357,.241-.1357,.4212Z"/><path class="cls-2" d="M23.7143,28.775v-.1762c.2876-.0385,.5144-.078,.6804-.1185s.3453-.0982,.5376-.1731l.079,.0668c-.0304,.7239-.0456,1.7349-.0456,3.033,0,.2612,.0041,.526,.0122,.7938,.0041,.1701,.0137,.2693,.0289,.2967,.0147,.0273,.039,.0491,.0724,.0653,.0329,.0162,.1534,.0284,.3605,.0365v.2491l-.3184-.0091c-.1979-.0061-.365-.0091-.5002-.0091l-.9067,.0182v-.2491l.2248-.0122c.1013-.0041,.1666-.0228,.1959-.0562s.0471-.161,.0532-.3817c.0101-.3063,.0152-.7417,.0152-1.3056l-.003-1.299c-.002-.3954-.0132-.6186-.0334-.6693-.0081-.0243-.0233-.0425-.0456-.0547-.0365-.0223-.1721-.0375-.407-.0456Z"/><path class="cls-2" d="M25.7109,32.8483v-.2491c.2288-.0081,.361-.0223,.3964-.0425s.0582-.077,.0683-.1706c.0162-.1276,.0243-.4096,.0243-.8454,0-.1883-.003-.363-.0091-.523l-.0091-.3559c0-.118-.0127-.1904-.038-.2177s-.0937-.043-.205-.0471l-.2278-.0091v-.2339c.488-.037,.89-.124,1.2059-.2612l.0759,.0608c-.0304,.3878-.0456,.9523-.0456,1.6929,0,.4283,.0071,.687,.0213,.7761,.0101,.0633,.0284,.1038,.0557,.122s.1595,.0365,.3969,.0547v.2491c-.3655-.0122-.648-.0182-.8475-.0182-.1068,0-.3944,.0061-.8627,.0182Zm.8444-4.4074c.1296,0,.2405,.0461,.3326,.1382s.1382,.204,.1382,.3356c0,.1296-.0461,.2405-.1382,.3326s-.204,.1382-.3356,.1382c-.1296,0-.2405-.0461-.3326-.1382s-.1382-.203-.1382-.3326c0-.1316,.0461-.2435,.1382-.3356s.204-.1382,.3356-.1382Z"/><path class="cls-2" d="M28.0473,31.8641c.0101,.2612,.0233,.407,.0395,.4374,.0446,.083,.1276,.1559,.2501,.2187,.122,.0628,.2638,.0942,.4258,.0942,.1979,0,.3458-.041,.444-.1225,.0977-.0815,.1468-.1898,.1468-.3245,0-.1164-.0354-.2086-.1063-.2759-.0709-.0668-.2228-.1256-.4556-.1762-.3524-.077-.5817-.1443-.688-.202s-.1909-.1433-.2536-.2567-.0942-.2491-.0942-.407c0-.1863,.0466-.3513,.1397-.4951,.0926-.1438,.2268-.2567,.4015-.3387,.1752-.082,.406-.123,.6931-.123,.2997,0,.5776,.0486,.8343,.1458-.0268,.1645-.0451,.4207-.0547,.7685h-.24c-.0122-.2187-.0294-.3473-.0516-.3858-.0304-.0587-.0881-.1083-.1731-.1488-.1175-.0547-.243-.082-.3767-.082-.1701,0-.3022,.038-.3964,.1134-.0942,.0759-.1412,.1711-.1412,.286,0,.1068,.0425,.1919,.1276,.2541,.0851,.0648,.2876,.1261,.6075,.1848,.2207,.0405,.3736,.078,.4587,.1124,.1418,.0608,.2496,.1499,.3235,.2663s.1109,.2643,.1109,.4425c0,.3432-.1326,.6055-.3974,.7882s-.5802,.2739-.9462,.2739c-.1215,0-.2562-.0142-.4035-.042-.1478-.0284-.3088-.0694-.4825-.1235l-.0456-.0511c.0243-.1757,.0395-.4531,.0456-.8313h.2582Z"/><path class="cls-2" d="M30.3082,32.8483v-.2491c.2187-.0122,.3443-.0273,.3767-.0456,.0203-.0122,.0354-.0304,.0456-.0547,.0203-.0506,.0314-.2364,.0334-.5569l.0061-1.1198c0-.5938-.0061-1.1355-.0182-1.6246-.0041-.1843-.0223-.2926-.0547-.324s-.162-.0501-.3888-.0562v-.2187c.1235,0,.3022-.0233,.5361-.0699,.2334-.0466,.4242-.1002,.5721-.161,.0613-.0263,.0967-.0395,.1068-.0395,.0304,0,.0456,.0192,.0456,.0577v.0213c-.0061,.0486-.0091,.1235-.0091,.2248l-.0213,.975c-.0041,.2369-.0051,.5103-.003,.8201l.4004-.3402c.0845-.0709,.1483-.1144,.1909-.1306,.1073-.0425,.2324-.0638,.3761-.0638,.3174,0,.5518,.079,.7037,.2374,.1493,.1585,.2243,.4091,.2243,.7518l-.0122,1.2059c0,.2152,.0081,.3478,.0243,.3989,.0101,.0304,.0334,.0547,.0709,.0729,.037,.0182,.1504,.0314,.3392,.0395v.2491c-.2491-.0122-.4708-.0182-.6652-.0182-.1823,0-.3696,.0061-.5619,.0182l-.0395-.0516c.0405-.3934,.0608-.7796,.0608-1.1588,0-.5189-.0304-.8404-.0911-.9639-.081-.1564-.2268-.2344-.4374-.2344-.1256,0-.2369,.0294-.3341,.0881-.0972,.0592-.1645,.1286-.202,.2091-.0375,.08-.0562,.2309-.0562,.4521l.0122,.935c.002,.2116,.0122,.3372,.0304,.3777,.0101,.0208,.0263,.0359,.0486,.0461,.0446,.0223,.1762,.0395,.3949,.0516v.2491c-.2329-.0122-.4769-.0182-.732-.0182-.3686,0-.6926,.0061-.972,.0182Z"/></g></svg>